<!DOCTYPE svg PUBLIC "-//W3C//DTD SVG 1.1//EN" "http://www.w3.org/Graphics/SVG/1.1/DTD/svg11.dtd">
<!-- Uploaded to: SVG Repo, www.svgrepo.com, Transformed by: SVG Repo Mixer Tools -->
<svg width="800px" height="800px" viewBox="-1.44 -1.44 18.88 18.88" xmlns="http://www.w3.org/2000/svg" fill="none" stroke="#fcfcfc" stroke-width="0.00016">
<g id="SVGRepo_bgCarrier" stroke-width="0"/>
<g id="SVGRepo_tracerCarrier" stroke-linecap="round" stroke-linejoin="round" stroke="#CCCCCC" stroke-width="0.032"/>
<g id="SVGRepo_iconCarrier">
<path fill="#3d77ff" fill-rule="evenodd" d="M13 0a3 3 0 00-1.65 5.506 7.338 7.338 0 01-.78 1.493c-.22.32-.472.635-.8 1.025a1.509 1.509 0 00-.832.085 12.722 12.722 0 00-1.773-1.124c-.66-.34-1.366-.616-2.215-.871a1.5 1.5 0 10-2.708 1.204c-.9 1.935-1.236 3.607-1.409 5.838a1.5 1.5 0 101.497.095c.162-2.07.464-3.55 1.25-5.253.381-.02.725-.183.979-.435.763.23 1.367.471 1.919.756a11.13 11.13 0 011.536.973 1.5 1.5 0 102.899-.296c.348-.415.64-.779.894-1.148.375-.548.665-1.103.964-1.857A3 3 0 1013 0zm-1.5 3a1.5 1.5 0 113 0 1.5 1.5 0 01-3 0z" clip-rule="evenodd"/>
</g>
</svg>